/* XPM */
static char *f2a67e2a4b7840edb16992275cbd609f[] = {
/* columns rows colors chars-per-pixel */
"64 64 218 2 ",
"   c #0C0702",
".  c #0E0A02",
"X  c #0F0D0A",
"o  c #140D03",
"O  c #180F05",
"+  c #110F0B",
"@  c #171003",
"#  c #1A1304",
"$  c #16120B",
"%  c #19140C",
"&  c #1F190D",
"*  c #1E1A13",
"=  c #1C1714",
"-  c #251B05",
";  c #2A1E06",
":  c #251C0D",
">  c #2B1C0A",
",  c #321E0C",
"<  c #231D14",
"1  c #2C1F11",
"2  c #2C2106",
"3  c #2C220E",
"4  c #27220D",
"5  c #312506",
"6  c #352907",
"7  c #34240A",
"8  c #3A250D",
"9  c #35290D",
"0  c #3C2B0A",
"q  c #382A07",
"w  c #272014",
"e  c #2A2314",
"r  c #262119",
"t  c #2A251A",
"y  c #2B281F",
"u  c #332413",
"i  c #3B2614",
"p  c #352A13",
"a  c #3B2B13",
"s  c #32261A",
"d  c #352A1A",
"f  c #3C2B1A",
"g  c #382518",
"h  c #3E3113",
"j  c #3E311B",
"k  c #3F3009",
"l  c #322C23",
"z  c #353123",
"x  c #422D0D",
"c  c #44320B",
"v  c #4B350D",
"b  c #4C390B",
"n  c #50360F",
"m  c #533C0D",
"M  c #583F0F",
"N  c #422711",
"B  c #422C15",
"V  c #4B2D13",
"C  c #422D1A",
"Z  c #512F16",
"A  c #443314",
"S  c #4B3313",
"D  c #4B3A14",
"F  c #44331B",
"G  c #4B341B",
"H  c #47391A",
"J  c #4C3B1B",
"K  c #463812",
"L  c #543414",
"P  c #5A3616",
"I  c #553B12",
"U  c #5C3B14",
"Y  c #52361B",
"T  c #5C3619",
"R  c #533C1B",
"E  c #5E3A19",
"W  c #613D16",
"Q  c #633C19",
"!  c #693F1C",
"~  c #413020",
"^  c #4C3622",
"/  c #4A3A25",
"(  c #513721",
")  c #543B21",
"_  c #5B3E23",
"`  c #56410C",
"'  c #5C440E",
"]  c #5F480D",
"[  c #544114",
"{  c #5D4313",
"}  c #54421C",
"|  c #5B431C",
" . c #5D4A1C",
".. c #5F4A16",
"X. c #61460F",
"o. c #644B0E",
"O. c #684E0F",
"+. c #6C510F",
"@. c #644314",
"#. c #6A4715",
"$. c #654A12",
"%. c #6C4B14",
"&. c #654119",
"*. c #6B421A",
"=. c #624C1D",
"-. c #6C4C19",
";. c #724D17",
":. c #734C19",
">. c #7D4E1D",
",. c #71461B",
"<. c #6D5111",
"1. c #66521C",
"2. c #6B531D",
"3. c #6F591E",
"4. c #735412",
"5. c #795515",
"6. c #775812",
"7. c #7B5C13",
"8. c #775118",
"9. c #7B521A",
"0. c #72591F",
"q. c #5D4222",
"w. c #5A4429",
"e. c #5C4730",
"r. c #634524",
"t. c #684526",
"y. c #644A23",
"u. c #6B4D23",
"i. c #66452A",
"p. c #6A4629",
"a. c #6C4A2B",
"s. c #654B2F",
"d. c #724E26",
"f. c #734C28",
"g. c #6E5322",
"h. c #6A5627",
"j. c #735324",
"k. c #755A22",
"l. c #7B5D22",
"z. c #7C542B",
"x. c #775729",
"c. c #6C5230",
"v. c #715434",
"b. c #7F6023",
"n. c #7D622F",
"m. c #4C4B4A",
"M. c #4F4C44",
"N. c #514F4A",
"B. c #54524D",
"V. c #59564E",
"C. c #565551",
"Z. c #595651",
"A. c #5C5952",
"S. c #5D5C5A",
"D. c #615F5B",
"F. c #63615E",
"G. c #69655F",
"H. c #666564",
"J. c #696664",
"K. c #6C6A66",
"L. c #6D6B69",
"P. c #716D67",
"I. c #716E6A",
"U. c #787369",
"Y. c #777775",
"T. c #787775",
"R. c #7B7976",
"E. c #7C7C7B",
"W. c #824F1F",
"Q. c #825F15",
"!. c #81531E",
"~. c #855A1B",
"^. c #8B5E1D",
"/. c #856214",
"(. c #8A6516",
"). c #8E6916",
"_. c #8C611B",
"`. c #88671B",
"'. c #946E16",
"]. c #92671B",
"[. c #977016",
"{. c #997218",
"}. c #A57A1A",
"|. c #A6791B",
" X c #845220",
".X c #895621",
"XX c #855A2C",
"oX c #855926",
"OX c #875C31",
"+X c #846324",
"@X c #8B6925",
"#X c #896527",
"$X c #987724",
"%X c #976024",
"&X c #A17928",
"*X c #817E77",
"=X c #817E7B",
"-X c #B1821D",
";X c #AC8429",
":X c #BB8E20",
">X c #848177",
",X c #83817D",
"<X c #8A867D",
"1X c #8D887A",
"2X c #8C8677",
"3X c #878685",
"4X c #888786",
"5X c #8C8A87",
"6X c #8D8C8A",
"7X c #918D87",
"8X c #928E89",
"9X c #949087",
"0X c #95918A",
"qX c #99948A",
"wX c #9F9989",
"eX c #969390",
"rX c #A6A6A6",
"tX c #AAAAAA",
/* pixels */
"3XE.Y.Y.Y.K.m.H.6XE.Y.Y.Y.K.m.H.E.e # # # @ + S.6XE.Y.Y.Y.H.m.H.4XE.Y.R.E.K.m.H.E.* @ # # # % S.6X<X2X2X2XU.V.H.6X1X<X2X1XU.M.S.",
"C.y < * * * * C.S.y * * 4 * = H.4Xw # # # @ + C.F.y * * * * * Z.H.y * * * * * F.4Xe # # # # 4 V.J.1.3.3.0.1...A.P.h.3.3.3.2.} M.",
"H.w @ @ @ @ % F.Y.* @ # @ . + H.5X4 # # # # % F.Y.< @ @ @ @ = F.Y.4 @ @ @ @ $ H.4Xe # # # 2 h G.>Xl./.[.[./.<.G.>X{.'.'.{.7.[ V.",
"R.e # # @ @ % H.4Xt # @ @ @ % H.5Xe # # # @ # K.4X4 # @ % @ % H.6Xy @ # # @ % H.4Xw # # 2 ` [ P.qX$X-X-X-X{.1.P.wX;X-X-X-X{.O.A.",
"Y.e # # @ @ % H.6Xw @ @ . @ + H.4Xw # # % @ % H.4Xr # # # # % H.5Xt # # # @ % H.3Xw # 2 ` ' { U.wX;X}.}.:X}.1.P.wX;X'.7.-X).] A.",
"T.e # # @ . $ H.3X* . # @ @ % H.4Xw # # @ o % H.4Xe # # # @ % H.6Xt # % # @ % H.3Xw ; o./.6. .P.9X;X}.|.|.(.1.U.wX`.3.'.-X(...A.",
"Y.w @ # # @ $ H.3X* @ @ $ @ $ H.6Xl w w w < * L.4Xr % # # @ $ H.6Xw @ # @ @ % H.6X/ } +X@X+Xq.P.7Xb.[.{.|._.2.P.wXb.`.-X-X7.[ A.",
"T.< . . @ @ $ H.6X* @ @ . . + H.rX6X4X4X4XY.S.E.4X4 @ . . . $ H.6X* . . @ @ % H.rX8X7X0XqX*XS.E.6X1.' ..8.5.@.I.qX1.+.O.] ` 9 V.",
"R.e @ @ @ . $ H.3X*   X @ @ % F.E.L.H.H.H.H.D.E.4X* o o O o = H.6Xt # @ o . $ S.E.L.K.P.P.P.G.E.qX@XQ.9.%.n p K.6Xj c O./.7.[ A.",
"R.e # # # @ $ J.4X4 @ @ @ @ % S.S.* $ $ $ % * L.4X< o # O o $ H.6Xt @ # # # < D.D.f A } R { | P.qX#X~.~._.%.Y L.9X=.o./.`.6.[ A.",
"R.e # # # @ % H.4Xw @ @ @ @ % H.T.< O O O o $ H.4Xw # # # O + H.4Xt # # # > i J.>Xu.n @.5.%.E P.qX+X^.].^.4.D J.wXb.' <./.6.K V.",
"R.e # # # @ % H.4Xw @ % # + $ H.4X< O O # o $ H.4X< O O O o = H.6Xt @ % , x A K.0Xl.;.@.9.:.} P.0Xx.9.5.9.%.A K.0X@X7.../.7.[ A.",
"R.e # # # @ $ H.4Xw @ $ # @ % H.4X< # # O o = H.4X< # # O O = H.6Xt # > x n D P.0Xj.;.@.I #.R P.0Xy.:.~.~.;.I P.0X@X4.] +.+.[ A.",
"Y.w # # # o $ H.4X< @ @ . . % H.4X< O # # O + H.4X< O # O o = H.6Xt 7 S U U D K.qXz.:.9.:.S a K.8XE %.9.!.%.I L.qXl.o.7./.] [ V.",
"T.z w 4 w < * L.6Xl w w < = * L.4X< O O O o + H.4X< O O O O $ H.4Xd K :.9.:.Y P.9Xx.~.^.!.U i J.qXv.j.oX#Xj.} L.qXn.+X@X@X3.[ Z.",
"6X6X4X4X4XY.S.,XtX6X4X4X4XY.S.E.4X*   . .   + H.4X< o o     + H.6Xj q S U &.Y P.9XoX:.P v x u J.rX0X8XqXqX*XF.3XtXqX9X9X9X=XC.S.",
"H.L.H.H.H.F.F.E.E.L.H.H.H.H.S.E.6X< o . o   X H.4X= o O O o $ H.0Xi.&.,.*.L g K.5X) P &.9.:.B H.E.U.P.P.P.K.K.R.,XP.P.K.P.J.Z.S.",
"m.* % % % % w F.S.* % $ $ $ = L.4X* o O O o + H.4X< O X O o = H.6Xr.#..X%X>.Z P.qXXX!.!..X&.C G.F.) J Y U } y.K.F. .[ [ { ..} B.",
"L.< @ @ @ @ % H.R.< O o .   $ H.4X< + O O O + L.3X< O O O O 1 L.0Xz.!..X X*.( P.0XXX>..X X&.B J.*Xj.%.8.8.#.R K.>Xb.Q.5.7.6.D V.",
"E.r # # % @ $ H.4X< O o o o $ H.4X< O O O + + H.3X= O O O , g J.eXOX.XW.!.*.Z P.qXXX>. X!.,.Y K.qXXX!.~.~.9.{ P.qX@XQ.(.[.(.b A.",
"R.t # # # # $ H.4Xw @ o O o $ H.4X1 O O O o $ H.4X= X O 1 , g J.qXOX X X X,.( L.0XXXW.W.W.*.G K.qXoX9.!._.5.@.P.0X@X(.).[.7.D Z.",
"R.e # # # @ % H.4X< o # $ O $ H.4X< X O O . $ H.4X= O , , , g J.eXOXW. X X,.Z L.0Xf..X.X>.*.P K.8XXX!.^.^.%.| P.9X#X).).).7.D Z.",
"Y.4 # # # @ % H.4X< o # # O + H.6Xl < < < < = L.6Xl g ( ~ g ~ L.eXv.XXz.XXt.) I.eXa.XXXXXXf.( L.5Xq.;.^.^.9.U P.9X+X`.).).7.K B.",
"Y.4 . . @ @ % H.4X* o o .   + H.rX6X3X3X3XT.S.E.tX8X5X5X5X=XS.E.tX8X8X8X0X=XF.=XtXeX0X8X0X*XS.E.7XJ 8 x @.%.} P.qX+X<.' ` c 9 Z.",
"Y.t @ @ @ . X H.3X* . X O o % H.E.L.H.H.H.H.F.E.E.L.J.L.L.J.J.E.3XI.H.L.L.J.J.T.E.I.K.K.K.K.H.E.7Xx.,.v S c u K.5X} b ..4.+.D Z.",
"Y.t # # % @ % H.3X4 @ # O o % S.S.= + + + O r F.S.l g g g Z ^ J.F.~ g 1 1 C ^ J.D.f 1 1 i C F L.7Xu.@.n @.@.A P.9Xk.4.7.6.+.K Z.",
"Y.y @ # @ @ % H.3Xw @ @ # O $ H.T.= + O o O 1 H.T.Z N i Z Z C J.=X) T Z 8 N C J.*XY V L P V N K.8Xt.W @.#.U S K.7Xg.<.4.4.] K Z.",
"Y.4 # # # @ % H.4Xw @ % $ O $ H.4X1 O O O : , K.6X( V Q T Z Z J.8Xp.! Q T N g K.qXt.Q Q Q L C K.7Xd.;.#.&.m A P.9Xb.6.4.4.o.K Z.",
"R.4 # # - @ % H.4Xw @ @ # @ $ H.4Xr O O > > g J.8X( ! T T T C L.8Xp.Q T T Z N L.8Xt.Q Q &.P B K.8Xd.#.@.@.I B K.9X+X%.+.6.' K Z.",
"Y.t # % @ @ $ H.3Xw @ @ @ @ + H.4X< O , , , g J.6X_ T T ! Z g J.8Xi.! T ! Z N L.5X) L Q ! S C L.8Xd.@.I I v p K.9Xj.+.;.<.] K Z.",
"E.z 4 4 4 * * L.6Xz w w < * = L.4X< , N Z Z C L.8Xp.T ! ! V g J.8Xi.T T ! Z C L.7X_ Q &.U x i J.8Xc.&.|  .R j P.qXx.0.3.3. .A Z.",
"6X6X3X4X6XY.S.,XtX6X4X4X6XY.S.E.4Xg 1 , Z V , L.8Xp.V N g , 1 J.6X~ , N N Z g L.8Xr.V Z 8 , e L.rX8X7X8X9XE.D.,XtXeX9X9X9XE.C.S.",
"H.H.H.H.H.H.F.T.E.L.H.H.H.H.D.E.5XC V L T , : J.5XC i Z T T C J.eXp.T Z Z g 1 H.6Xf 8 V L U C G.E.P.L.K.K.K.J.R.=XL.K.K.K.G.B.S.",
"B.w % $ $ $ r H.S.* $ $ + = < H.7XH L Q ! Z g L.8Xi.Q T Q Z g K.eXi.Z T ! Z g J.8Xr.Q Q Q P C F.D.f i p a S } J.F.H A A K K A m.",
"L.< @ @ @ @ % F.T.< O O O O : J.8X_ W U ! L i K.5X( T ! ! Z C K.6Xi.! T T V g L.5XY Q &.Q S i J.E.Y L n U m S K.*X=.@.' ' ' h V.",
"R.e # # # @ % H.4Xw O # # > u K.7Xf.*.! *.Q C K.8X~ T ! Q Z ~ H.8Xp.! T T Z g J.8Xp.! Q @.L a L.7Xr.#.%.;.U K K.0Xl.6.6.4.o.K Z.",
"Y.e # # # # $ H.4Xw # # > 7 i K.8Xd.*.&.! T N K.5X( Z Q Q P C H.8Xp.T Z T N g J.8Xp.P T U L C K.7Xy.,.;.#.U A K.8X3.4.4.<.o.h V.",
"Y.e # # # @ % J.4Xr # > 7 7 u K.8Xt.W ! T T g K.8Xp.Z V T Z f J.8Xt.T Z N Z N L.8X_ V V P Z i L.8Xu.#.U U m a K.5Xy.$.4.<.m p V.",
"Y.< % # # # $ J.4Xw > 0 0 8 u J.eX) E y.Q ( ~ L.8Xt.T Z V V g J.6X^ N V V Z C L.8X/ ( G ) G f L.7Xr.U c I @.a K.7X .m ' ` k 3 Z.",
"Y.< . @ o o $ J.4Xs - > > - 1 J.rX6X7X8X5X=XD.=X8X_ T , , , 1 J.6X~ , g N , g J.rX8X8X8X7X*XS.E.8XG 7 > x n A K.5XJ k 5 - - & B.",
"R.e # # @ . + H.4Xw - 7 V c a H.E.L.J.J.L.J.D.E.5XC N V i V f J.8Xi.T Z V , < D.E.P.K.K.L.J.F.E.8Xq.8 7 0 8 1 K.4Xp - 2 q c p V.",
"Y.e # # # @ % H.5Xf 0 U U S u D.S.d u u a i l L.6XY E Q Q 8 f J.8Xi.T ! *.P C D.S.l i C a C F L.4XY S v L v A L.6XJ q 7 0 c 3 C.",
"Y.e # # @ # & H.7XH 0 v v x g J.E.G V P V V i J.8X^ L Q Q V C K.8Xp.! ! *.P C H.=XY V Q P I C P.7Xr.U U I n A J.7XR c q k k 3 Z.",
"Y.t # # # - 4 K.5X .L 0 v x u K.8X) &.Q Q P C P.5XC P Q Q L C K.8Xp.Q T *.Q V K.8Xt.P Q *.Q V P.8Xg.#.#.@.{ A L.5X} c c b k p Z.",
"R.e # # 5 2 4 K.5Xq.m S x x u K.7Xq.Q Q Q L i K.7X( V P L V f L.eXa.P L Q U G L.8Xq.L L W P N H.8Xj.%.:.%.U A L.6X[ k c c k 9 Z.",
"R.e # 2 k k 9 K.5X} v v n ; u K.7X| Q &.U x i K.8X) x 8 S x u H.8Xi.Z V U V N K.8X_ L L W L u K.8Xd.,.%.%.I 7 H.6XF 0 c c k 9 Z.",
"R.z p j } h d I.0Xe.q.E R f s L.4XC V &.&.S g J.0Xs.) G _ C s J.eX_ _ i.r.E z P.8Xr.P W P x 1 K.8Xc.x.-.y.R y L.6X} J [ K H p C.",
"6X6X5X6X4XE.S.,XtX0X5X8X8XR.S.E.6XC 8 7 N 7 1 J.rX0X8X7X7XR.S.E.rX8XeXeX7X*XD.E.8X_ L x 7 > < J.rX8X8X8X8XE.S.,XtX6X5X5X6XE.C.S.",
"K.L.K.K.K.J.G.R.,XL.J.K.K.J.F.E.8XR I S x , < F.E.I.L.L.K.J.J.E.,XL.K.K.J.J.F.E.6Xf 8 S L U B H.E.I.L.K.J.J.H.E.,XL.K.J.L.H.V.S.",
"B.p 9 p a p j H.D.d u 9 u e j P.6XR L U #.U p F.D.G G S C S ) J.D.G B B a F G L.7Xy.U P @.S u F.S.d i e > e f H.S.s 4 3 u 3 p m.",
"L.K ` ` b k 9 H.R.F v U L v S J.8Xu.U #.:.U B J.*X| W U W U H H.,Xq.U U U L S L.9Xj.%.@.U 0 a H.R.a 7 8 7 7 u J.E.h - 7 6 2 p B.",
">X .` [ b b h L.0X .@.@.%.@.B L.8Xu.;.%.9.@.A L.7X| &.%.%.U D L.0Xh.#.#.%.{ A K.7Xx.%.U L U D L.8XF 8 x c 8 4 J.5X[ c 5 5 c h Z.",
">X1.` ` ` ` p H.8X .@.@.@.U a L.7Xu.%.8.%.{ A P.7X| U @.U b F J.0Xg.#.@.@.I A L.8Xj.U m -.@.D K.5XJ x x v 8 < J.7XJ q q k c h Z.",
"E.} ` [ ] k p K.8X} I I I c u K.8Xg.{ U U n u J.6XG n v x x a J.0Xc.@.@.%.U B K.7X} n %.#.@.B K.8XJ 0 x 0 7 > J.7XF ; q c c 9 B.",
"Y.H ` ` [ c p K.7XR D c L 8 : J.8Xe.R J  .Y d K.7X| { M v c u J.0Xq.@.%.%.I A K.0Xc.g.y.g.=.F L.5XF 8 x x 8 p K.5Xj 5 k b q 4 C.",
"*XK 6 6 6 q 9 K.5XF 2 q 2 2 4 L.rX8X7X7X8X*XF.E.8Xu.n x 0 7 u J.6XJ 0 x c v A J.rXqX7X7X0X>XS.E.5XF 5 5 q x p P.5Xp 5 2 2 & 4 B.",
">X2.m b q 6 & H.4X< ; q I ' D H.E.I.P.K.L.K.F.E.6XJ c I O.] [ J.qXx.%.{ m q u F.E.P.K.K.P.J.F.E.8Xg.%.@.m k 3 K.5Xe - 7 c k a V.",
">X .b ' ` q 4 K.6Xp 6 n @.v A G.D.J D K K K } P.9Xj.%.4.<...h J.qXh.' $.%.' A G.D.J D D S J } P.9Xl.4.4.5.o.K L.6Xh q c c q p Z.",
"*X .' ' b 3 9 K.5XJ k ' ' c D K.>X1.o.o.$.m D K.9X3.<.4.<.{ j H.0Xh.<.#.%.X.K J.*X=.X.X.o.M S K.0Xk.<.%.<.$.K L.7XH 2 0 k k 9 Z.",
"*X .` b 6 c h K.0Xl.o.n n X.K P.9Xb.6.7.6.%.S K.7X0.4.7.7.$.[ K.0Xk.4.$.<.$.A L.9Xk.4.<.6.o.K P.7X1.4.$.<.' k P.7X[ c 9 c c h Z.",
">X1.` c b 6 3 L.9Xl.6.+.' ' D P.9X3.6.6.6.O.D P.8X0.7.7.6.] K H.9Xh.O.+.<.' K K.9X0.4.4.<.o.K K.8X0.+.o.o.` h K.7X} ` ` ` c h Z.",
">X=.b b c 2 4 K.9X3.4.6.o.b D K.9Xl.+.+.<.] D L.9X0.+.6.+.` [ H.9Xb.4.+.+.] K K.9X3.+.+.$.' K K.9X3.o.o.o.` h K.7X1.] o.] ` h Z.",
"*XH c ` b 6 4 K.9X1.o.O.o.` h J.7X=.` o.o.` k L.5X1.o.` ] ` p H.6Xw.` ' ' b h J.9X1.o.` ` b 9 H.5X} m o.] ` h K.7X1.o.] ] ` 9 Z.",
"Y.h 2 6 k c 9 D.2X1.' b 6 - 4 F.,Xh 5 q c b h F.1X2.` c 2 4 4 S.3XH 5 6 c ` 0 F.1X3.] c 6 ; 4 H.>XA 6 q b ] h F.<X1.] b 6 2 4 B."
};
