/* XPM */
static char *d2369bc1402e4028f96bffc2ca8a1940[] = {
/* columns rows colors chars-per-pixel */
"64 64 248 2 ",
"   c #0C0C01",
".  c #070802",
"X  c #130F05",
"o  c #151401",
"O  c #191603",
"+  c #1B1A02",
"@  c #17140C",
"#  c #1C1A15",
"$  c #171611",
"%  c #0F1005",
"&  c #221D03",
"*  c #271B06",
"=  c #351D01",
"-  c #241E14",
";  c #2B2503",
":  c #2B250C",
">  c #2A2607",
",  c #322D04",
"<  c #342A0B",
"1  c #392B0B",
"2  c #372506",
"3  c #353105",
"4  c #3B3404",
"5  c #363309",
"6  c #3A350A",
"7  c #3D3A0C",
"8  c #3F3906",
"9  c #2B2417",
"0  c #392A16",
"q  c #3F3C11",
"w  c #3E3512",
"e  c #372B22",
"r  c #3E3128",
"t  c #462B06",
"y  c #463203",
"u  c #4B3404",
"i  c #423D0D",
"p  c #4D3B0A",
"a  c #483708",
"s  c #523C0C",
"d  c #543A04",
"f  c #442E17",
"g  c #423E12",
"h  c #493519",
"j  c #573A18",
"k  c #512F11",
"l  c #623C12",
"z  c #473626",
"x  c #543A23",
"c  c #5B3C24",
"v  c #583B29",
"b  c #4F3A2E",
"n  c #633E25",
"m  c #49430D",
"M  c #584309",
"N  c #454213",
"B  c #4A4614",
"V  c #4D4915",
"C  c #4E4A19",
"Z  c #4B451B",
"A  c #5B4313",
"S  c #524C14",
"D  c #5C4C12",
"F  c #524D1A",
"G  c #584519",
"H  c #56511C",
"J  c #5A551C",
"K  c #5E591D",
"L  c #595116",
"P  c #644401",
"I  c #654B02",
"U  c #6B4C02",
"Y  c #674908",
"T  c #6C5104",
"R  c #6C540C",
"E  c #735505",
"W  c #765909",
"Q  c #624D13",
"!  c #67471B",
"~  c #6A5313",
"^  c #635B1D",
"/  c #685719",
"(  c #755817",
")  c #79641B",
"_  c #736012",
"`  c #4C4926",
"'  c #5C4529",
"]  c #5A5522",
"[  c #5D5923",
"{  c #58542B",
"}  c #5A4838",
"|  c #555236",
" . c #64442A",
".. c #6C452B",
"X. c #684926",
"o. c #7C4D2A",
"O. c #764B26",
"+. c #625D23",
"@. c #685827",
"#. c #795727",
"$. c #694935",
"%. c #764D35",
"&. c #7D5435",
"*. c #785337",
"=. c #635B33",
"-. c #666024",
";. c #6B6423",
":. c #65622A",
">. c #6D682C",
",. c #726A25",
"<. c #736D2D",
"1. c #7A6725",
"2. c #7B732D",
"3. c #6A6437",
"4. c #766A35",
"5. c #767131",
"6. c #7B7533",
"7. c #7B7638",
"8. c #565747",
"9. c #665843",
"0. c #7A5946",
"q. c #704E46",
"w. c #5E6955",
"e. c #686646",
"r. c #7B7646",
"t. c #777558",
"y. c #716A55",
"u. c #696C65",
"i. c #75776D",
"p. c #5F6F72",
"a. c #836717",
"s. c #824E2B",
"d. c #84542D",
"f. c #855C2A",
"g. c #8A5634",
"h. c #8C5B34",
"j. c #855836",
"k. c #935D3B",
"l. c #965C36",
"z. c #866828",
"x. c #84742B",
"c. c #8A742B",
"v. c #867528",
"b. c #92772C",
"n. c #8B6734",
"m. c #94623C",
"M. c #986739",
"N. c #827A34",
"B. c #887936",
"V. c #957837",
"C. c #956B2A",
"Z. c #A26A3E",
"A. c #A57739",
"S. c #A17D2E",
"D. c #865C44",
"F. c #88564B",
"G. c #8A634A",
"H. c #996645",
"J. c #876657",
"K. c #996956",
"L. c #8F7850",
"P. c #A46A44",
"I. c #A36C4B",
"U. c #A86B45",
"Y. c #AA7547",
"T. c #A87455",
"R. c #B27850",
"E. c #8B7662",
"W. c #A87866",
"Q. c #B6736A",
"!. c #C67877",
"~. c #7F8172",
"^. c #8A823A",
"/. c #978739",
"(. c #998935",
"). c #A49439",
"_. c #898445",
"`. c #968A46",
"'. c #9D9346",
"]. c #898559",
"[. c #959559",
"{. c #928F57",
"}. c #A69849",
"|. c #A69C56",
" X c #AE8A4B",
".X c #ABA358",
"XX c #B4AB5A",
"oX c #B6A956",
"OX c #BDB25D",
"+X c #BDB054",
"@X c #B0A44E",
"#X c #999569",
"$X c #918A6C",
"%X c #B58468",
"&X c #B6927A",
"*X c #AB9172",
"=X c #ACAA63",
"-X c #B6AB66",
";X c #BBB468",
":X c #BDB678",
">X c #AAA86F",
",X c #C5B95E",
"<X c #C4B75B",
"1X c #C5A859",
"2X c #C38F72",
"3X c #C5BA62",
"4X c #CABD62",
"5X c #C3B968",
"6X c #C5B979",
"7X c #C79959",
"8X c #CEC164",
"9X c #CDC269",
"0X c #D2C566",
"qX c #D9CC6D",
"wX c #D6C86A",
"eX c #DCCE71",
"rX c #D7CE77",
"tX c #DED173",
"yX c #CFC17C",
"uX c #E1D376",
"iX c #E3D67A",
"pX c #7A9196",
"aX c #B79988",
"sX c #94ACB4",
"dX c #ABAD9C",
"fX c #C9AC90",
"gX c #CDAC9B",
"hX c #CBC486",
"jX c #D5CC94",
"kX c #E6DB8A",
"lX c #EEE28E",
"zX c #EDE496",
"xX c #D9D1A6",
"cX c #E4DCB4",
"vX c #F4ECA6",
"bX c #EAE5B9",
"nX c #FAF5BB",
"mX c #EDE6AE",
"MX c #A3BBC4",
"NX c #EBE6C7",
"BX c #FBF8D9",
"VX c #F3F0CE",
"CX c #FEFDE4",
"ZX c #FEFDEC",
"AX c #F7F6E4",
"SX c #FFFFF4",
"DX c #FEFFFE",
"FX c #DBD8C2",
/* pixels */
", , , , 6 7 7.VXDXDXSXSXAXBXVXbXcXxXkXhX6X;X=X[..X.X=X=X=X|.{.7.:.C i 7 B H L B 7 g N N N N N g 7 N 7 C [ F > o % % % %   %     ",
", , , 5 6 C hXDXDXDXDXDXDXDXDXDXDXDXSXSXZXAXVXNXcXjXhXhX6X:X-X=X`.<.K -.^ K K B i i N N N N N N N N N F :.[ 5 o o % % % %   %   ",
"8 6 , 5 5 [ bXDXDXDXDXDXDXDXDXDXDXDXDXDXDXDXDXDXDXDXDXSXZXZXZXAXBXjX/.7.N.5.;.J N B C C C C C Z C C H J >.:.6 o o o % % o   %   ",
"i 7 6 6 6 C hXZXDXDXDXDXDXDXDXDXDXDXDXDXDXDXDXDXDXDXDXDXDXDXDXAXAXZXmXhX:X.X'.;.V V C F F H C F C H J ^ <.>.7 O o o o o o % o % ",
"i 7 5 5 5 5 L `.-XfXxXcXNXBXZXSXSXDXDXDXDXDXDXDXDXDXDXDXAXxX{.r.r.].*XFXSXZXBXhX^ V H H H H H H H J K -.5.>.q + o o O o % o %   ",
"5 5 , , > , , , 4 i M D ;.6.`.|.;XfXjXcXNXVXAXCXSXSXDXxXr.w : : 9 : < =.dXVXDXBX`.F H J J H H F H J -.;.5.<.m + O O o o o o o o ",
", ; ; ; > ; ; , 3 8 i S ;.B.|.-X/.^ ^ 1.1.x.N.^.`.-XyX4.> : : 9 : : : < < 3.xXBX=XH J J J H H H H K -.;.6.<.N + O O O o o o o % ",
"& & ; ; 3 m -.N.|.6XjXcXVXZXDXDXbXN.L J L S m i V ,.S < * : : : : : : : : > h [.`.J K [ J H H H J K ;.;.6.<.N + + O O o o o o o ",
"+ 5 B.>XjXbXVXZXSXDXDXDXDXDXDXDXCX|.m L L L S m +.C : : : 1 h j [ ] f 0 > * : w ;.^ K +.[ J H H H ^ ,.,.N.<.B + o + o + o o o o ",
"; B.BXDXDXDXDXDXDXDXDXDXDXDXDXDXCX`.m S L K ^ ;.F < 0 f j n ..#.V.}.'.`.3.w : < w +.5.B.7.-.H H H ^ ;.,.N.5.V + o + + o o o o o ",
"4 hXSXDXDXDXDXDXDXDXDXDXDXDXDXDXmX^ i m ^ ) 2.-.0 w j O.o.s.s.s.C. X1XwX4X XG , < g 7.{.{.7.[ C H ^ ;.<.N.5.V + + + + + o o + o ",
"D mXDXDXDXDXDXDXDXDXDXDXZXVXNXjXN.y i S ;.2.2.N h X.o.o.o.s.s.s.d.n.Y.4XtX1Xc.D 1 < ] ].#X].7.] S K ;.,.N.5.V + + o + o + + o o ",
"^ mXDXDXSXSXAXVXbXxX6X.X`.(._ M 8 8 N L ;.^.+.h X.#.O.O.n g.s.s.s.g.m. X4X@XC.c.( 6 6 3.*X$Xr.:.C K ;.,.6.5.B + + o + + + o o o ",
", /.6X6X=X'.B.) D m a m '.xXcXhX;X.X|.|.XX'.w j O.o.O.O.s.g.g.g.g.h.h.V. X Xz.c./.J 2 Z $X#X].4.H H ^ ,.6.5.B + + + + o + o o + ",
"; , y y m m 8 , , , 5 ,.zXZXSXSXZXBXCXZXZX].w X.o.s.s.s.D.H.l.F.k.k.k.m.V.C.f.z.V.z.6 5 G.&X#Xe.[ H ^ ,.6.5.C + + + + + + + + o ",
", 3 3 m V V m 8 4 3 6 7.nXZXSXSXZXZXZXDXNX` h #.d.d.g.F.H.I.P.P.H.M.M.k.n.z.#.( b./.A < X.*X*Xr.:.H ^ ,.6.5.C + + + + + o o + o ",
"3 8 8 m H H m m 7 7 8 5.mXZXDXSXZXZXZXDXgX9 ] #.d.j.h.H.H.P.U.U.P.H.l.M.m.z.#.( z.(./ < a [.*XJ.3.K ^ ;.6.<.V + + + + + + o + o ",
"3 8 7 N V V B N N 7 7 m XXVXBXBXBXBXZXZX#X5 @.n.f.j.g.H.I.I.U.U.P.P.M.M.M.z.f.#.z.V.x.8 1 G.&XE.e.[ K ;.6.5.V + + + + + + + + o ",
"3 7 7 7 N B B N q 7 7 6 m -.N.^.}..X6XjX3.w #.n.d.d.g.H.I.U.U.U.U.Z.Z.Y.`.M.f.#.a.c.c.A 2 *.*Xi.e.[ J -.5.<.V + + + + + + + + o ",
"6 7 m m N m V V B m i 7 3 3 3 3 3 3 y D g x z.z.d.g.k.P.T.R.R.U.U.U.Y.Y.Y.V.f.( f.z.c.J 5 =.*Xi.e.:.K -.5.<.V + + + + + + + o + ",
"V V S S S L K K L L L m V m m m i m B L g [ n.n.g.h.P.%X2XfX%XQ.!.%X%XY.M.M.C.z.z.z.z.) i { $Xu.8.[ J -.5.<.V + + + + + + + o + ",
"^ ^ ^ -.;.,.,.,.,.,.,.,.,.) ;./ / / ;.x.G #.B.#.c ` $.L.aXgXgXfX2X&XW.G. .` G X.1.v.z.1.M { $Xu.8.:.K -.5.<.V + + + + + + + + o ",
"2.2.6.N.N.N.^.^.^.^./.(.(.'.@X).}.}.}.oX! 4.n.X.r z z b 0.aXgXgXaXW.$.h 9 9 0 < ^ b.a.1.S 3.>Xi.8.| H [ 5.<.B + + + + + + + + + ",
"^.(./././.'.).).}.}.@X+X<XqXiXlXvXvXnXbX>.1.z.h $.*.*. .$.F.&XaX%XH...x c ..X.j h V.v.v./ 3.hX].8.` C [ <.<.B + + + + + + + + o ",
"@X@X@XXX@X+XXX+X+X+X<X8XqXiXvXnXVXBXBXVX6.1.#.' g.T.&XT.F.H.Q.aXT.m.d.g.K.H.h.O.A n.v.1./ 6.fX#X8.{ H [ <.<.C + + + + + + + + + ",
",X,X8X8X8X8X,X8X,X8X0X0XiXlXvXnXBXBXZXVXn.4.#.f.l.K.W.*XT.P.Y.T.H.h.d.K.W.D.n.#.! ( x.1.^ B.hX#X8.` C H >.<.C + + + + + + + + + ",
"qXqXqXqXtXqXqXqXqXqXqXqXiXlXvXnXBXBXZXVX4.z.n.n.s.*. .*.T.P.Z.Z.M.s.o.J.0.$.X.#.! z.c.) / _.hX>X8.` C ] >.>.V + + + + + + + + + ",
"tXtXtXtXuXuXuXtXqXtXqXtXuXiXlXvXnXBXBXVXB.z.V.f.x r r v F.l.l.Z.A.o.n q.u.e 9 h ! 1.b.1./ `.hX>Xw.` C H >.>.C + + + + + + + + + ",
"tXtXiXiXiXiXiXuXtXtXtXqXqXqXtXtXiXlXvXvXB.c.M.j $.e z E.$.g.l.A.A.O.j J.aXe z } f ( V.x./ _.:X=X3.C B H >.:.N + + + + + + + + + ",
"tXtXtXtXiXtXtXtXtXtXqXqXwX0XwXqXtXiXkXzX/.n.n.j E.} } D.j.g.Z.R. Xs.o.*.y.b x n j ( b.V._ ~.#X~.8.C N H >.:.N + + + + + + + + + ",
"qXqXqXqXqXtXqXqXqXqXwX0X0X0X0XwXqXtX9X|.V.z.l.f.O.$.D.D.k.k.l.R.7Xf.d.m.D.*.n O.z.C.V./.^ 7.].t.8.C B H >.:.N + + + + + + + + + ",
"0X0X0XqX0X0X0X0X0X0X0X8X8X8X8X0X0XqX/.j 4.n.g.l.l.H.K.P.k.k.U.R.7XA.h.Z.k.k.M.A.A.A.(./.1.Q B 8.` N N H :.:.N > + + + + + + + + ",
"8X8X8X8X8X8X8X8X8X8X3X8X,X8X,X8X9XwXn.O.z.z.l.Z.Y.T.U.Y.P.U.2X2XU.R.Z.l.Y.Z.Y. XA.A.S./.( d t ' ` g g ] :.:.N + + + + + + + + + ",
"<X,X8X8X4X4X3X,X,X3X,X,X,XOX3X8X9X4XL.h.n.C.Z.R.R.U.T.%XR.R.U.Q.g.Z.Z.l.Y.R.R.A.A.C.b.(.R k j ..` g N F :.:.N + + + + + + + + + ",
"OX<X,X,X,X,X;X<XOXOXOXOXOXOX;X8X9X5XH.l.V.V.Y.R.U.U.Q.%XH.x ..k.t 0 n s.R.U.A.Z.l.f.z.b.Q d l X.N q N F :.:.N & + + + & + + + + ",
"oXXXOXOXOXOXOXOXOXOXOXXXXXOXOX3X4X5XL.m.n.M.V.P.U.I.%XQ.n k ....n v n n I.U.Z.l.f.f.z.v.k = j c g w N F +.:.B + + + + + + + + + ",
"}..XXXXXXXoX@X@X.XoXXX.X.X.XXXOX3X5XH.K.n.n.M.P.P.T.T.H.n n n F.$.h ' Y.R.P.m.h.d.( f.1.Q = k B w q N F [ :.N & + + + + + + + + ",
").'.@X}.}.'.'.'.}.|.|.@X@X|.|.@XXX3X`.I.n.n.M.P.P.H.H.g.c v F.F.$.j G c.Y.M.h.d.#.O.R ( Y = k i N H K H [ :.B + + + + + + + + o ",
"v.(./././.^.N.v.b.(.).'.'./.`.'.}.oX Xg.&.z.M.H.H.H.s.n b F.K.K.G.F.%.X.1.n.f.#.O.! ! / M t A h [ B._.-.[ [ N & + + + + + + + + ",
"W ) 1.1.) ) ~ ~ ) v.^.^.^.v.v.b./.}.L.j.O.#.h.M.k.%.v %.J.J.J.J.J.G.0.j.' X.#.O...! A Q Y ~ / C 5.[.[.N.:.[ N & + + + + o + + + ",
"I R W T Y I M d I W ) v.) _ / ) v.b.V.H.O.#.f.m.n.} $.G.0.J.J.0.q.q.$.$.$.j X.O.X.! j D ~ R / F ~.;X;X_.:.[ N + + + + + + + O O ",
"P Y P l l l d d M I R W W R I R ( a.c.n.j.@.j.j.#.$.j.$.q.q.q.F.q.$.v z v  .j G G A A D Y ( Q F (.5X5X_.-.[ N & + + + + + + O O ",
"P P P l l P M d M P T T T I I U E W ) C.&.X.&.n.X.$.$.b } K.!.!.!.Q.F.z b v  .j A j s S 1 Q B F ^.3X3X^.[ [ N + + + + + + O O O ",
"P P P U P P P P M M T T E T I I T E W ( ! X.@.*.*.*.$.9.F.Q.!.Q.Q.Q.F.%.$.' j G j h k B < g q C _.5X;X^.[ ] N & + + O + O + + O ",
"l U U U U U U P M I T T T T U I U E a.E R G  .$.%.$.*.0.J.K.W.Q.Q.K.0.q.n n x A j f a N g g q C ^.=X=X^.[ ] q + + + + @ + + o o ",
"U U U U U U U I I I I E W T I I U E E E W D ' X.$.$.*.j.D.F.J.F.F.q.n n n n h h f , 1 p N g q C N.=X|.2.] ] N + + + + + + O O O ",
"U U U U E U E U I T T E E T I I U E W a.W Q x x ' v %.F.%.v e e e z z n $.n f f 1 1 1 i N N q N :.^.^.+.H ] N & O + + + + + o o ",
"U U U U U U U U I I T W T T U U U E W W W Q x x x v n j.%.n b q.b v v n n z f 1 2 < 1 i g g N q V [ K V ] ] N + O + + O + o + o ",
"U E U U T I T U T I T T T T I I T E E W W E h x x z n ..%.F.J.y.0.q.*. .x f 0 0 < 2 1 N N g g g N N N V H ] N + + + + o + o o o ",
"d l P P M I I U I I T T T T I T E E E E E R ' h x h c %.j.D.0.0.0.*.*...c f < 2 : , 5 N N g g g q q N B ] ] N + + + + + o + o o ",
"y d d l I T T W W E _ W _ _ R I T E E T E E G x ' x x &.0.$.b 8.$.} v ' c h < < 2 : 6 N g q g q q N N B H [ V + + o + o + o o % ",
"y d M U _ (.(.(.).).).).).).v.R M I I I I ( @.h x x x  .b z b r z z 0 0 h f < < : = N Z g q g q q q N B ] [ N > + + + o o o o o ",
"D / -.1./.@X@X@X+X+X+X<X<X+X)._ d M R W ) /.V.z f f 0 0 r 9 e e 9 e # - : 0 < * * 2 M N q q q q q N N C ` [ N + + o + o o o o o ",
"] =.3.7.'..X=XXX+X<X<X<X<X<X@X,.u / ^.}.@X3X@XX.e 9 9 9 9 - - # # # $ # * - * * * 1 S N N q q q q q N C H ] V + o + o + o o o o ",
"e.u.u.w.[.=X;X=X+X+X+X).).+X).2.S ,.}.;X4XrXXXh.c 9 - - - # # # $ $ # # @ * O & * y D N q q w 7 q N N N ` ] N + + o o o o o % % ",
"i.i.~.i.[.=X=X'.).(.2.R _ v.^.^ L 6.|.5X9XrX-Xj.&.f - @ # # $ $ $ $ @ @ @ O O * 2 u Q S N N N N N N N C H C q + o o o o o % o % ",
"].~.~.~.].{.^.,.^ L M y 4 u M D J 7.'.+XOXOX Xm.k.$.f - - # @ @ % % X @ @ * * * t u Q H G C C Z B V C C V q > O % % o %   o   . ",
"L.p.p.w.~._.<.Q M M y y y 4 y M K t.~.2.^.^.N.n.H.j.n f - @ @ @ X $ X X * O * = = d ~ ^ B N N g N N N m 5 ; +   % %       .   . ",
"=.e.w.3.,.) Q p a p u u y y 4 y K w.w.3.7.7.4.m.H.H.F.n f * X X X X O * & * = = t u ( c.L 7 i i 5 5 5 5 ; o     . . . . . . . . ",
"w.w.8.{ L T p a a p p p d u u y V 8.w.r.[.| =.k.I.I.H.n n z 9 * @ @ * * = = = = t u ~ b.b.v.F | =.> + + o .   . . . .     . . . ",
"pXpXp.| s p u y p s M A M s p u p ] e.{.].' %.m.I.I.H.*.%.%.$.c f f 0 2 = 2 = t k j ~ a.C.S.z.` t.{ %                   % % . % ",
"MXsXpXw.Q u t y p j A A A A M d d @.].$Xu.} #.m.I.T.I.H.j.F.D.D.%.n k k t k k j l l ! a.a.S.A.V.].$Xe.:   % %       %   % % o + ",
"MXMXsXy.@.j a t s A A A A M M G 4.{.t.i.u.$.%.m.H.T.T.H.g.j.F.T.F.s.n k j j n O.n l Y ( f.C.A.Y.$X#X#X].` # %   %       o + + > ",
"MXsXsXu.0.! k p s j j G s m D L.E.u.u.u.u.8.*.H.P.I.T.H.D.s.g.K.K.n j j n ..d.s.O.O.l ( f.Z.A.L.~.~.].#X#Xe.+ .       o + ; ; ; "
};
